#!OML:ASF F:\VICON\USERDATA\INSTALL\Justin_Nancy\Justin_Nancy.ASF
:FULLY-SPECIFIED
:DEGREES
127
root -0.0666529 17.373 -33.1811 9.58118 1.29598 0.487873
lowerback 6.51898 -1.17884 -1.86856
upperback -2.41424 -1.52126 3.87725
thorax -6.03433 -0.597664 5.30207
lowerneck -6.41017 -1.84062 -11.9147
upperneck 15.1096 -1.90309 5.65286
head 5.79234 -1.19626 3.62433
rclavicle 4.57205e-015 7.15625e-015
rhumerus -33.5599 -2.39717 -80.6354
rradius 30.8539
rwrist 4.36066
rhand -19.3355 11.2634
rfingers 7.12502
rthumb 6.98129 -18.6014
lclavicle 4.57205e-015 7.15625e-015
lhumerus -41.6075 17.3865 80.8011
lradius 34.7864
lwrist -7.35153
lhand -15.0788 23.1212
lfingers 7.12502
lthumb 11.0888 52.8083
rfemur -7.00697 3.5058 26.2433
rtibia 21.3465
rfoot -18.487 -12.0961
rtoes 0.568839
lfemur -36.7746 1.02815 -18.2643
ltibia 50.4706
lfoot -14.0637 1.94781
ltoes -4.7412
128
root -0.0675704 17.3805 -33.1219 9.46587 1.49695 0.560046
lowerback 6.35129 -1.18655 -1.96666
upperback -2.25372 -1.54324 3.88
thorax -5.764 -0.613928 5.35152
lowerneck -6.03422 -1.82745 -11.8693
upperneck 14.722 -1.93016 5.65094
head 5.60798 -1.20321 3.61121
rclavicle -5.76476e-015 -7.95139e-015
rhumerus -33.4938 -2.76462 -80.4009
rradius 30.9324
rwrist 5.42304
rhand -17.1311 10.1852
rfingers 7.12502
rthumb 9.10884 -19.5981
lclavicle -5.76476e-015 -7.95139e-015
lhumerus -41.5469 17.554 80.7248
lradius 34.7507
lwrist -7.39804
lhand -14.8704 23.0995
lfingers 7.12502
lthumb 11.2898 52.7756
rfemur -6.32325 3.45898 26.2378
rtibia 20.7644
rfoot -18.4431 -12.2315
rtoes 0.774223
lfemur -37.0836 1.0557 -18.4251
ltibia 49.492
lfoot -13.9895 2.20559
ltoes -3.51436
129
root -0.0710859 17.3816 -33.0442 8.99084 2.45256 0.790392
lowerback 6.35891 -1.46142 -2.04566
upperback -2.00635 -1.92455 3.8455
thorax -5.46545 -0.812141 5.39159
lowerneck -5.59028 -1.80199 -11.8557
upperneck 14.3143 -1.94349 5.64207
head 5.40568 -1.20628 3.60247
rclavicle -1.07344e-014 -1.59028e-015
rhumerus -33.6341 -2.75964 -80.3429
rradius 31.2568
rwrist 5.85292
rhand -15.8563 10.0197
rfingers 7.12502
rthumb 10.3388 -19.7061
lclavicle -1.07344e-014 -1.59028e-015
lhumerus -41.6814 17.5038 80.6977
lradius 34.9447
lwrist -7.26965
lhand -14.5361 23.8362
lfingers 7.12502
lthumb 11.6121 53.4944
rfemur -5.13701 3.26791 26.2854
rtibia 20.2381
rfoot -18.6825 -12.8807
rtoes 2.23056
lfemur -36.8754 0.502694 -18.6766
ltibia 48.3512
lfoot -13.9035 2.28024
ltoes -3.30135
130
root -0.0698329 17.3895 -32.9976 9.11539 1.9401 0.394596
lowerback 6.62341 -1.08882 -1.5042
upperback -2.06722 -1.38255 3.72566
thorax -5.75236 -0.55695 4.91021
lowerneck -5.79969 -2.09057 -11.8334
upperneck 14.4617 -2.34701 5.86754
head 5.52499 -1.3871 3.64466
rclavicle -1.11319e-014 1.66979e-014
rhumerus -33.8626 -3.29774 -80.3864
rradius 31.4579
rwrist 5.70211
rhand -15.8634 10.0083
rfingers 7.12502
rthumb 10.3319 -19.7179
lclavicle -1.11319e-014 1.66979e-014
lhumerus -41.6648 16.892 80.6624
lradius 35.0116
lwrist -7.13823
lhand -14.642 24.4644
lfingers 7.12502
lthumb 11.51 54.1284
rfemur -5.00006 3.59323 26.583
rtibia 19.8713
rfoot -18.6879 -12.4316
rtoes 4.6948
lfemur -37.3415 1.12319 -18.4518
ltibia 47.1642
lfoot -13.6042 2.7385
ltoes -4.59
131
root -0.0714706 17.3924 -32.9358 8.95978 2.20258 0.425044
lowerback 7.13649 -0.851208 -1.231
upperback -2.012 -1.05376 3.43722
thorax -6.02699 -0.40489 4.42624
lowerneck -6.37737 -2.4241 -11.3815
upperneck 14.709 -2.79805 5.92774
head 5.73541 -1.57432 3.55668
rclavicle 3.97569e-015 -6.36111e-015
rhumerus -33.9878 -4.37579 -80.3336
rradius 31.5279
rwrist 5.97849
rhand -15.7813 9.04222
rfingers 7.12502
rthumb 10.4111 -20.68
lclavicle 3.97569e-015 -6.36111e-015
lhumerus -41.4406 15.7832 80.7862
lradius 35.0127
lwrist -7.08911
lhand -14.6474 24.3127
lfingers 7.12502
lthumb 11.5048 53.977
rfemur -4.47574 3.76333 26.6659
rtibia 19.5946
rfoot -18.8364 -12.7806
rtoes 6.06884
lfemur -37.5443 1.01333 -18.5847
ltibia 45.916
lfoot -13.1259 2.96802
ltoes -6.66013
132
root -0.0677227 17.3874 -32.8723 9.02687 2.10516 0.415827
lowerback 7.16557 -0.658818 -1.11903
upperback -1.99144 -0.792039 3.32885
thorax -6.0465 -0.281796 4.21671
lowerneck -6.56045 -2.47367 -11.3001
upperneck 14.6453 -2.87477 6.0773
head 5.75346 -1.59293 3.58408
rclavicle 1.53064e-014 -3.18055e-014
rhumerus -34.1321 -4.62978 -80.324
rradius 31.6799
rwrist 6.01976
rhand -15.6439 9.04311
rfingers 7.12502
rthumb 10.5437 -20.6724
lclavicle 1.53064e-014 -3.18055e-014
lhumerus -41.4307 15.4142 80.8283
lradius 34.9888
lwrist -7.25227
lhand -14.7327 24.0852
lfingers 7.12502
lthumb 11.4226 53.754
rfemur -4.07671 3.78201 26.6602
rtibia 19.1141
rfoot -18.7844 -12.7954
rtoes 5.45329
lfemur -37.9859 1.14464 -18.6956
ltibia 44.7187
lfoot -12.7297 3.03021
ltoes -6.95056
133
root -0.0602059 17.3823 -32.823 9.64695 0.942999 0.216285
lowerback 6.44835 -0.227364 -1.15843
upperback -2.04261 -0.220674 3.34512
thorax -5.73673 -0.00221438 4.17589
lowerneck -6.01522 -2.64064 -11.4762
upperneck 14.5002 -3.14165 6.08744
head 5.64251 -1.73702 3.59954
rclavicle 4.57205e-015 -2.54444e-014
rhumerus -34.1193 -4.37288 -80.4183
rradius 31.8765
rwrist 5.79171
rhand -15.7371 9.64284
rfingers 7.12502
rthumb 10.4538 -20.0773
lclavicle 4.57205e-015 -2.54444e-014
lhumerus -41.4741 15.6585 80.7133
lradius 34.9086
lwrist -7.43347
lhand -14.4594 24.3683
lfingers 7.12502
lthumb 11.6861 54.0223
rfemur -4.29381 3.9818 26.5116
rtibia 18.4113
rfoot -18.4292 -11.9064
rtoes 3.97128
lfemur -38.9359 1.92188 -18.6614
ltibia 43.5397
lfoot -12.5593 3.56604
ltoes -6.25564
134
root -0.0612469 17.3536 -32.7439 9.07549 2.45377 0.429582
lowerback 6.84734 -0.548348 -1.02783
upperback -1.83773 -0.645441 3.24794
thorax -5.71581 -0.221502 4.05085
lowerneck -5.75547 -2.57369 -10.9886
upperneck 13.6423 -3.09398 5.94457
head 5.3155 -1.6871 3.47251
rclavicle 0 -1.51076e-014
rhumerus -34.2385 -4.77793 -80.3569
rradius 32.0099
rwrist 5.85481
rhand -15.4915 9.27231
rfingers 7.12502
rthumb 10.6907 -20.4357
lclavicle 0 -1.51076e-014
lhumerus -41.4703 15.3236 80.6577
lradius 34.8906
lwrist -7.38372
lhand -14.4157 24.2341
lfingers 7.12502
lthumb 11.7282 53.8858
rfemur -2.78877 3.66533 26.7892
rtibia 17.5787
rfoot -18.3533 -13.3444
rtoes 2.48926
lfemur -38.8248 0.898791 -18.788
ltibia 42.3562
lfoot -12.2356 3.28582
ltoes -6.5608
135
root -0.0609556 17.3419 -32.6735 8.88029 3.07471 0.481616
lowerback 7.32489 -0.465918 -0.774274
upperback -1.75287 -0.52056 3.04896
thorax -5.91145 -0.170379 3.69064
lowerneck -6.21165 -2.82093 -10.6696
upperneck 13.5336 -3.42338 6.02085
head 5.3831 -1.81809 3.41648
rclavicle 1.88845e-015 -1.43125e-014
rhumerus -34.331 -5.71046 -80.2289
rradius 31.9899
rwrist 6.09269
rhand -15.0996 8.54488
rfingers 7.12502
rthumb 11.0687 -21.1432
lclavicle 1.88845e-015 -1.43125e-014
lhumerus -41.2995 14.4673 80.7552
lradius 34.9039
lwrist -7.13541
lhand -14.6171 23.5499
lfingers 7.12502
lthumb 11.534 53.2125
rfemur -1.76054 3.71671 26.9805
rtibia 16.5992
rfoot -18.0479 -14.1417
rtoes 1.94419
lfemur -39.0665 0.421226 -18.8276
ltibia 41.1722
lfoot -11.8104 3.19289
ltoes -6.61698
136
root -0.0579659 17.3471 -32.6073 8.92069 3.0376 0.515663
lowerback 7.45002 -0.441622 -0.800706
upperback -1.76831 -0.492653 2.99078
thorax -6.00123 -0.155367 3.64365
lowerneck -6.15913 -2.82191 -10.588
upperneck 13.2589 -3.43169 6.01487
head 5.28783 -1.81549 3.39942
rclavicle -1.38155e-014 2.38542e-015
rhumerus -34.4377 -5.43018 -80.4866
rradius 32.029
rwrist 5.80887
rhand -15.5781 8.38149
rfingers 7.12502
rthumb 10.6072 -21.3308
lclavicle -1.38155e-014 2.38542e-015
lhumerus -41.3773 14.8081 80.4095
lradius 34.6609
lwrist -7.17742
lhand -14.4777 23.9987
lfingers 7.12502
lthumb 11.6685 53.6538
rfemur -0.932826 3.9367 26.9794
rtibia 15.4739
rfoot -17.7835 -14.1828
rtoes 2.66268
lfemur -39.499 0.345161 -18.8897
ltibia 39.9539
lfoot -11.4382 3.32803
ltoes -6.45487
137
root -0.0441378 17.3449 -32.5344 8.98311 2.69168 0.304776
lowerback 7.2232 -0.270709 -0.560794
upperback -1.73067 -0.243932 2.99292
thorax -5.84985 -0.0434805 3.4747
lowerneck -5.68095 -2.89216 -10.6924
upperneck 12.9917 -3.57276 6.11715
head 5.13939 -1.88671 3.44263
rclavicle 1.39149e-015 -3.18055e-015
rhumerus -34.5802 -5.50453 -80.4322
rradius 32.5363
rwrist 7.11543
rhand -14.5942 7.03547
rfingers 7.12502
rthumb 11.5561 -22.6259
lclavicle 1.39149e-015 -3.18055e-015
lhumerus -41.2907 15.1726 80.112
lradius 34.1321
lwrist -7.34822
lhand -14.3829 24.2033
lfingers 7.12502
lthumb 11.7599 53.8531
rfemur -0.308978 4.11711 27.0889
rtibia 14.6318
rfoot -17.6908 -13.8692
rtoes 3.42745
lfemur -39.915 0.30418 -18.6503
ltibia 38.7089
lfoot -11.1385 3.70622
ltoes -6.19232
